<svg width="24" height="24" viewBox="0 0 24 24" fill="none" xmlns="http://www.w3.org/2000/svg">
<path d="M2 14C2 10.229 2 8.343 3.172 7.172C4.343 6 6.229 6 10 6H14C17.771 6 19.657 6 20.828 7.172C22 8.343 22 10.229 22 14C22 17.771 22 19.657 20.828 20.828C19.657 22 17.771 22 14 22H10C6.229 22 4.343 22 3.172 20.828C2 19.657 2 17.771 2 14Z" stroke="#101828" stroke-width="1.3"/>
<path d="M5 11C5 10.4696 5.21071 9.96086 5.58579 9.58579C5.96086 9.21071 6.46957 9 7 9H17C17.5304 9 18.0391 9.21071 18.4142 9.58579C18.7893 9.96086 19 10.4696 19 11C19 11.5304 18.7893 12.0391 18.4142 12.4142C18.0391 12.7893 17.5304 13 17 13H7C6.46957 13 5.96086 12.7893 5.58579 12.4142C5.21071 12.0391 5 11.5304 5 11ZM9 17C9 17.3978 8.84196 17.7794 8.56066 18.0607C8.27936 18.342 7.89782 18.5 7.5 18.5C7.10218 18.5 6.72064 18.342 6.43934 18.0607C6.15804 17.7794 6 17.3978 6 17C6 16.6022 6.15804 16.2206 6.43934 15.9393C6.72064 15.658 7.10218 15.5 7.5 15.5C7.89782 15.5 8.27936 15.658 8.56066 15.9393C8.84196 16.2206 9 16.6022 9 17Z" stroke="#101828" stroke-width="1.3"/>
<path d="M15 11.5V13M13 17H18M6.5 6L15 2" stroke="#101828" stroke-width="1.3" stroke-linecap="round"/>
</svg>
